<?xml version="1.0" encoding="UTF-8" standalone="no"?>
<svg
   xmlns:dc="http://purl.org/dc/elements/1.1/"
   xmlns:cc="http://creativecommons.org/ns#"
   xmlns:rdf="http://www.w3.org/1999/02/22-rdf-syntax-ns#"
   xmlns:svg="http://www.w3.org/2000/svg"
   xmlns="http://www.w3.org/2000/svg"
   xmlns:sodipodi="http://sodipodi.sourceforge.net/DTD/sodipodi-0.dtd"
   xmlns:inkscape="http://www.inkscape.org/namespaces/inkscape"
   version="1.1"
   id="Capa_1"
   x="0px"
   y="0px"
   viewBox="0 0 60 60"
   style="enable-background:new 0 0 60 60;"
   xml:space="preserve"
   width="512px"
   height="512px"
   class=""
   sodipodi:docname="clock.svg"
   inkscape:version="0.92.3 (d244b95, 2018-08-02)"><metadata
   id="metadata985"><rdf:RDF><cc:Work
       rdf:about=""><dc:format>image/svg+xml</dc:format><dc:type
         rdf:resource="http://purl.org/dc/dcmitype/StillImage" /></cc:Work></rdf:RDF></metadata><defs
   id="defs983" /><sodipodi:namedview
   pagecolor="#ffffff"
   bordercolor="#666666"
   borderopacity="1"
   objecttolerance="10"
   gridtolerance="10"
   guidetolerance="10"
   inkscape:pageopacity="0"
   inkscape:pageshadow="2"
   inkscape:window-width="1853"
   inkscape:window-height="1025"
   id="namedview981"
   showgrid="false"
   inkscape:zoom="1.6386719"
   inkscape:cx="256"
   inkscape:cy="329.23004"
   inkscape:window-x="67"
   inkscape:window-y="27"
   inkscape:window-maximized="1"
   inkscape:current-layer="Capa_1" /><g
   transform="matrix(-0.95506023,0,0,0.95712386,58.757748,1.2289571)"
   id="g978"
   style="fill:#150000;fill-opacity:1;stroke:#000000;stroke-width:0.92650838;stroke-miterlimit:4;stroke-dasharray:none;stroke-opacity:1;image-rendering:auto"
   inkscape:transform-center-y="-0.27411668"><g
     id="g976"
     style="fill:#150000;fill-opacity:1;stroke:#000000;stroke-width:0.92650838;stroke-miterlimit:4;stroke-dasharray:none;stroke-opacity:1">
	<path
   d="M 30,0 C 13.458,0 0,13.458 0,30 0,46.542 13.458,60 30,60 46.542,60 60,46.542 60,30 60,13.458 46.542,0 30,0 Z m 0,58 C 14.561,58 2,45.439 2,30 2,14.561 14.561,2 30,2 45.439,2 58,14.561 58,30 58,45.439 45.439,58 30,58 Z"
   data-original="#000000"
   class="active-path"
   id="path972"
   style="fill:#150000;fill-opacity:1;stroke:#000000;stroke-width:0.92650838;stroke-miterlimit:4;stroke-dasharray:none;stroke-opacity:1"
   inkscape:connector-curvature="0" />
	<path
   d="M 30,6 C 29.448,6 29,6.447 29,7 V 30 H 14 c -0.552,0 -1,0.447 -1,1 0,0.553 0.448,1 1,1 h 16 c 0.552,0 1,-0.447 1,-1 V 7 C 31,6.447 30.552,6 30,6 Z"
   data-original="#000000"
   class="active-path"
   id="path974"
   style="fill:#150000;fill-opacity:1;stroke:#000000;stroke-width:0.92650838;stroke-miterlimit:4;stroke-dasharray:none;stroke-opacity:1"
   inkscape:connector-curvature="0" />
</g></g> </svg>