<?xml version="1.0" encoding="UTF-8" standalone="no"?>
<svg
   xmlns:dc="http://purl.org/dc/elements/1.1/"
   xmlns:cc="http://creativecommons.org/ns#"
   xmlns:rdf="http://www.w3.org/1999/02/22-rdf-syntax-ns#"
   xmlns:svg="http://www.w3.org/2000/svg"
   xmlns="http://www.w3.org/2000/svg"
   xmlns:sodipodi="http://sodipodi.sourceforge.net/DTD/sodipodi-0.dtd"
   xmlns:inkscape="http://www.inkscape.org/namespaces/inkscape"
   id="Layer_1"
   style="enable-background:new 0 0 48 48;"
   version="1.1"
   viewBox="0 0 48 48"
   xml:space="preserve"
   sodipodi:docname="comment.svg"
   inkscape:version="0.92.3 (d244b95, 2018-08-02)"><metadata
     id="metadata1075"><rdf:RDF><cc:Work
         rdf:about=""><dc:format>image/svg+xml</dc:format><dc:type
           rdf:resource="http://purl.org/dc/dcmitype/StillImage" /></cc:Work></rdf:RDF></metadata><defs
     id="defs1073" /><sodipodi:namedview
     pagecolor="#ffffff"
     bordercolor="#666666"
     borderopacity="1"
     objecttolerance="10"
     gridtolerance="10"
     guidetolerance="10"
     inkscape:pageopacity="0"
     inkscape:pageshadow="2"
     inkscape:window-width="1853"
     inkscape:window-height="1025"
     id="namedview1071"
     showgrid="false"
     inkscape:zoom="4.9166667"
     inkscape:cx="24"
     inkscape:cy="24"
     inkscape:window-x="67"
     inkscape:window-y="27"
     inkscape:window-maximized="1"
     inkscape:current-layer="Layer_1" /><g
     id="g1068"
     style="stroke:#000000;stroke-width:0.45117629;stroke-miterlimit:4;stroke-dasharray:none;stroke-opacity:1"
     transform="matrix(1.0261642,0,0,1.0395908,-0.41256834,-0.48221184)"><path
       d="M 42,45.3 28.7,41.6 C 27.3,41.9 25.8,42 24,42 11.3,42 2,33.6 2,22 2,16.6 3.9,11.9 7.6,8.2 11.7,4.2 17.6,2 24,2 c 12.7,0 22,8.4 22,20 0,4.3 -1.4,8.5 -4,11.8 z M 28.7,39.6 40,42.7 v -9.5 l 0.2,-0.3 C 42.7,29.8 44,26 44,22 44,11.6 35.6,4 24,4 18,4 12.7,6 9,9.6 5.7,12.9 4,17.2 4,22 c 0,10.4 8.4,18 20,18 1.8,0 3.2,-0.1 4.5,-0.4 z"
       id="path1066"
       style="stroke:#000000;stroke-width:0.45117629;stroke-miterlimit:4;stroke-dasharray:none;stroke-opacity:1"
       inkscape:connector-curvature="0" /></g></svg>