<?xml version="1.0" encoding="UTF-8" standalone="no"?>
<!-- Generator: Adobe Illustrator 19.0.0, SVG Export Plug-In . SVG Version: 6.00 Build 0)  -->

<svg
   xmlns:dc="http://purl.org/dc/elements/1.1/"
   xmlns:cc="http://creativecommons.org/ns#"
   xmlns:rdf="http://www.w3.org/1999/02/22-rdf-syntax-ns#"
   xmlns:svg="http://www.w3.org/2000/svg"
   xmlns="http://www.w3.org/2000/svg"
   xmlns:sodipodi="http://sodipodi.sourceforge.net/DTD/sodipodi-0.dtd"
   xmlns:inkscape="http://www.inkscape.org/namespaces/inkscape"
   version="1.1"
   id="Layer_1"
   x="0px"
   y="0px"
   viewBox="0 0 455 455"
   style="enable-background:new 0 0 455 455;"
   xml:space="preserve"
   sodipodi:docname="favorite.svg"
   inkscape:version="0.92.3 (d244b95, 2018-08-02)"><metadata
   id="metadata3913"><rdf:RDF><cc:Work
       rdf:about=""><dc:format>image/svg+xml</dc:format><dc:type
         rdf:resource="http://purl.org/dc/dcmitype/StillImage" /></cc:Work></rdf:RDF></metadata><defs
   id="defs3911" /><sodipodi:namedview
   pagecolor="#ffffff"
   bordercolor="#666666"
   borderopacity="1"
   objecttolerance="10"
   gridtolerance="10"
   guidetolerance="10"
   inkscape:pageopacity="0"
   inkscape:pageshadow="2"
   inkscape:window-width="1853"
   inkscape:window-height="1025"
   id="namedview3909"
   showgrid="false"
   inkscape:zoom="1.843956"
   inkscape:cx="135.30691"
   inkscape:cy="215.3862"
   inkscape:window-x="67"
   inkscape:window-y="27"
   inkscape:window-maximized="1"
   inkscape:current-layer="Layer_1" />
<path
   d="M326.632,10.346c-38.733,0-74.991,17.537-99.132,46.92c-24.141-29.384-60.398-46.92-99.132-46.92  C57.586,10.346,0,67.931,0,138.714c0,55.426,33.05,119.535,98.23,190.546c50.161,54.647,104.728,96.959,120.257,108.626l9.01,6.769  l9.01-6.768c15.529-11.667,70.098-53.978,120.26-108.625C421.949,258.251,455,194.141,455,138.714  C455,67.931,397.414,10.346,326.632,10.346z M334.666,308.974c-41.259,44.948-85.648,81.283-107.169,98.029  c-21.52-16.746-65.907-53.082-107.166-98.03C61.236,244.592,30,185.717,30,138.714c0-54.24,44.128-98.368,98.368-98.368  c35.694,0,68.652,19.454,86.013,50.771l13.119,23.666l13.119-23.666c17.36-31.316,50.318-50.771,86.013-50.771  c54.24,0,98.368,44.127,98.368,98.368C425,185.719,393.763,244.594,334.666,308.974z"
   id="path3876"
   style="fill:#000000;stroke:none;stroke-opacity:1;fill-opacity:1" />
<g
   id="g3878">
</g>
<g
   id="g3880">
</g>
<g
   id="g3882">
</g>
<g
   id="g3884">
</g>
<g
   id="g3886">
</g>
<g
   id="g3888">
</g>
<g
   id="g3890">
</g>
<g
   id="g3892">
</g>
<g
   id="g3894">
</g>
<g
   id="g3896">
</g>
<g
   id="g3898">
</g>
<g
   id="g3900">
</g>
<g
   id="g3902">
</g>
<g
   id="g3904">
</g>
<g
   id="g3906">
</g>
<path
   style="fill:#000000;fill-opacity:0;stroke:none;stroke-width:0.57105565;stroke-opacity:1"
   d="M 214.73338,409.42545 C 147.51885,353.62132 91.215229,292.13714 58.748783,239.0887 25.470715,184.71426 15.029414,138.35838 27.419047,99.994976 40.298051,60.116722 76.571432,31.203749 116.62536,28.890258 c 29.35671,-1.69564 55.48374,8.062148 76.46222,28.556661 9.25336,9.040062 13.6877,15.491798 24.73585,35.989584 4.28855,7.956537 8.03532,14.538667 8.32628,14.626697 0.29115,0.0873 4.26703,-6.81332 8.83567,-15.336814 11.55112,-21.548807 17.62777,-29.901972 28.62519,-39.348706 19.3066,-16.584237 40.57549,-24.62156 65.18482,-24.632664 25.51544,-0.01134 48.1049,8.812294 67.36056,26.312326 21.59344,19.624416 33.72692,47.705248 33.72692,78.055618 0,15.27925 -2.28581,28.63911 -7.85897,45.93131 -7.03175,21.81916 -17.30674,42.76698 -32.86598,67.00619 -27.82297,43.34398 -68.47326,89.41888 -120.0559,136.07753 -14.64252,13.24455 -41.99554,36.51426 -42.9221,36.51426 -0.18958,0 -5.34067,-4.14748 -11.44654,-9.2168 z"
   id="path4720"
   inkscape:connector-curvature="0" /></svg>
